RBDS012runT25_grf
version=1
nRows=15
nColumns=19
inDegrees=no
endheader
time	ground_force_r_vx	ground_force_r_vy	ground_force_r_vz	ground_force_r_px	ground_force_r_py	ground_force_r_pz	ground_force_r_mx	ground_force_r_my	ground_force_r_mz	ground_force_l_vx	ground_force_l_vy	ground_force_l_vz	ground_force_l_px	ground_force_l_py	ground_force_l_pz	ground_force_l_mx	ground_force_l_my	ground_force_l_mz
      0.00000000	      0.00000000	      0.00000000	      0.00000000	      0.00000000	      0.00000000	      0.00000000	      0.00000000	      0.00000000	      0.00000000	      0.00000000	      0.00000000	      0.00000000	      0.00000000	      0.00000000	      0.00000000	      0.00000000	      0.00000000	      0.00000000
      0.00100000	      0.00000000	      0.00000000	      0.00000000	      0.00000000	      0.00000000	      0.00000000	      0.00000000	      0.00000000	      0.00000000	    -12.92483716	     13.91822936	     -0.02259667	      0.65824382	      0.00000000	      0.29216696	     -0.00000000	     -1.44907118	      0.00000000
      0.00200000	      0.00000000	      0.00000000	      0.00000000	      0.00000000	      0.00000000	      0.00000000	      0.00000000	      0.00000000	      0.00000000	    -25.84967433	     27.83645871	     -0.04519333	      1.31648764	      0.00000000	      0.58433391	     -0.00000000	     -2.89814237	      0.00000000
      0.00300000	      0.00000000	      0.00000000	      0.00000000	      0.00000000	      0.00000000	      0.00000000	      0.00000000	      0.00000000	      0.00000000	    -38.77451149	     41.75468807	     -0.06779000	      1.97473146	      0.00000000	      0.87650087	     -0.00000000	     -4.34721355	      0.00000000
      0.00400000	      0.00000000	      0.00000000	      0.00000000	      0.00000000	      0.00000000	      0.00000000	      0.00000000	      0.00000000	      0.00000000	    -40.95096445	     63.69771515	     -0.54494018	      2.19329997	      0.00000000	      0.97367871	     -0.00000000	     -4.56732494	      0.00000000
      0.00500000	      0.00000000	      0.00000000	      0.00000000	      0.00000000	      0.00000000	      0.00000000	      0.00000000	      0.00000000	      0.00000000	    -37.75322531	     89.65314108	     -1.24936712	      2.19203083	      0.00000000	      0.97336199	     -0.00000000	     -4.17295643	      0.00000000
      0.00600000	      0.00000000	      0.00000000	      0.00000000	      0.00000000	      0.00000000	      0.00000000	      0.00000000	      0.00000000	      0.00000000	    -34.55548616	    115.60856702	     -1.95379406	      2.19076169	      0.00000000	      0.97304527	     -0.00000000	     -3.77858792	      0.00000000
      0.00700000	      0.00000000	      0.00000000	      0.00000000	      0.00000000	      0.00000000	      0.00000000	      0.00000000	      0.00000000	      0.00000000	    -31.44536800	    141.48174243	     -2.63948742	      2.18950567	      0.00000000	      0.97272920	     -0.00000000	     -3.38735397	      0.00000000
      0.00800000	      0.00000000	      0.00000000	      0.00000000	      0.00000000	      0.00000000	      0.00000000	      0.00000000	      0.00000000	      0.00000000	    -28.51049178	    167.19041680	     -3.28771362	      2.18827589	      0.00000000	      0.97241443	     -0.00000000	     -3.00238913	      0.00000000
      0.00900000	      0.00000000	      0.00000000	      0.00000000	      0.00000000	      0.00000000	      0.00000000	      0.00000000	      0.00000000	      0.00000000	    -25.57561556	    192.89909117	     -3.93593981	      2.18704611	      0.00000000	      0.97209967	     -0.00000000	     -2.61742429	      0.00000000
      0.01000000	      0.00000000	      0.00000000	      0.00000000	      0.00000000	      0.00000000	      0.00000000	      0.00000000	      0.00000000	      0.00000000	    -22.64073934	    218.60776554	     -4.58416601	      2.18581633	      0.00000000	      0.97178490	     -0.00000000	     -2.23245945	      0.00000000
      0.01100000	      0.00000000	      0.00000000	      0.00000000	      0.00000000	      0.00000000	      0.00000000	      0.00000000	      0.00000000	      0.00000000	    -20.10218196	    243.87143303	     -5.14115548	      2.18464474	      0.00000000	      0.97147382	     -0.00000000	     -1.86330824	      0.00000000
      0.01200000	      0.00000000	      0.00000000	      0.00000000	      0.00000000	      0.00000000	      0.00000000	      0.00000000	      0.00000000	      0.00000000	    -17.56362459	    269.13510051	     -5.69814494	      2.18347315	      0.00000000	      0.97116274	     -0.00000000	     -1.49415702	      0.00000000
      0.01300000	      0.00000000	      0.00000000	      0.00000000	      0.00000000	      0.00000000	      0.00000000	      0.00000000	      0.00000000	      0.00000000	    -15.02506721	    294.39876800	     -6.25513441	      2.18230157	      0.00000000	      0.97085165	     -0.00000000	     -1.12500581	      0.00000000
      0.01400000	      0.00000000	      0.00000000	      0.00000000	      0.00000000	      0.00000000	      0.00000000	      0.00000000	      0.00000000	      0.00000000	    -12.83112686	    319.24889025	     -6.73003093	      2.18117967	      0.00000000	      0.97054418	     -0.00000000	     -0.77025066	      0.00000000
